<mxfile host="app.diagrams.net" agent="Mozilla/5.0 (Macintosh; Intel Mac OS X 10_15_7) AppleWebKit/537.36 (KHTML, like Gecko) Chrome/131.0.0.0 Safari/537.36" version="25.0.3">
  <diagram name="第 1 页" id="a4ExYnm9axwF2dc6-GhR">
    <mxGraphModel dx="1280" dy="677" grid="1" gridSize="10" guides="1" tooltips="1" connect="1" arrows="1" fold="1" page="1" pageScale="1" pageWidth="827" pageHeight="1169" math="0" shadow="0">
      <root>
        <mxCell id="0" />
        <mxCell id="1" parent="0" />
        <mxCell id="10Q4ESYdWesnceg-2t6Q-7" style="edgeStyle=orthogonalEdgeStyle;rounded=0;orthogonalLoop=1;jettySize=auto;html=1;exitX=0.5;exitY=1;exitDx=0;exitDy=0;entryX=0.5;entryY=0;entryDx=0;entryDy=0;" edge="1" parent="1" source="10Q4ESYdWesnceg-2t6Q-1" target="10Q4ESYdWesnceg-2t6Q-2">
          <mxGeometry relative="1" as="geometry" />
        </mxCell>
        <mxCell id="10Q4ESYdWesnceg-2t6Q-1" value="开始" style="ellipse;whiteSpace=wrap;html=1;fillColor=none;" vertex="1" parent="1">
          <mxGeometry x="230" y="70" width="120" height="80" as="geometry" />
        </mxCell>
        <mxCell id="10Q4ESYdWesnceg-2t6Q-8" style="edgeStyle=orthogonalEdgeStyle;rounded=0;orthogonalLoop=1;jettySize=auto;html=1;exitX=0.5;exitY=1;exitDx=0;exitDy=0;" edge="1" parent="1" source="10Q4ESYdWesnceg-2t6Q-2" target="10Q4ESYdWesnceg-2t6Q-3">
          <mxGeometry relative="1" as="geometry" />
        </mxCell>
        <mxCell id="10Q4ESYdWesnceg-2t6Q-2" value="Tair" style="rounded=1;whiteSpace=wrap;html=1;fillColor=none;" vertex="1" parent="1">
          <mxGeometry x="220" y="190" width="140" height="60" as="geometry" />
        </mxCell>
        <mxCell id="10Q4ESYdWesnceg-2t6Q-10" style="edgeStyle=orthogonalEdgeStyle;rounded=0;orthogonalLoop=1;jettySize=auto;html=1;exitX=1;exitY=0.5;exitDx=0;exitDy=0;entryX=0;entryY=0.5;entryDx=0;entryDy=0;" edge="1" parent="1" source="10Q4ESYdWesnceg-2t6Q-3" target="10Q4ESYdWesnceg-2t6Q-5">
          <mxGeometry relative="1" as="geometry" />
        </mxCell>
        <mxCell id="10Q4ESYdWesnceg-2t6Q-13" style="edgeStyle=orthogonalEdgeStyle;rounded=0;orthogonalLoop=1;jettySize=auto;html=1;exitX=0.5;exitY=1;exitDx=0;exitDy=0;entryX=0.5;entryY=0;entryDx=0;entryDy=0;" edge="1" parent="1" source="10Q4ESYdWesnceg-2t6Q-3" target="10Q4ESYdWesnceg-2t6Q-12">
          <mxGeometry relative="1" as="geometry" />
        </mxCell>
        <mxCell id="10Q4ESYdWesnceg-2t6Q-3" value="是否有值" style="rhombus;whiteSpace=wrap;html=1;fillColor=none;" vertex="1" parent="1">
          <mxGeometry x="215" y="310" width="150" height="70" as="geometry" />
        </mxCell>
        <mxCell id="10Q4ESYdWesnceg-2t6Q-4" value="结束" style="rounded=1;whiteSpace=wrap;html=1;fillColor=none;" vertex="1" parent="1">
          <mxGeometry x="430" y="670" width="140" height="60" as="geometry" />
        </mxCell>
        <mxCell id="10Q4ESYdWesnceg-2t6Q-6" style="edgeStyle=orthogonalEdgeStyle;rounded=0;orthogonalLoop=1;jettySize=auto;html=1;exitX=0.5;exitY=0;exitDx=0;exitDy=0;entryX=1;entryY=0.5;entryDx=0;entryDy=0;" edge="1" parent="1" source="10Q4ESYdWesnceg-2t6Q-30" target="10Q4ESYdWesnceg-2t6Q-2">
          <mxGeometry relative="1" as="geometry" />
        </mxCell>
        <mxCell id="10Q4ESYdWesnceg-2t6Q-31" style="edgeStyle=orthogonalEdgeStyle;rounded=0;orthogonalLoop=1;jettySize=auto;html=1;exitX=1;exitY=0.5;exitDx=0;exitDy=0;entryX=0;entryY=0.5;entryDx=0;entryDy=0;" edge="1" parent="1" source="10Q4ESYdWesnceg-2t6Q-5" target="10Q4ESYdWesnceg-2t6Q-30">
          <mxGeometry relative="1" as="geometry" />
        </mxCell>
        <mxCell id="10Q4ESYdWesnceg-2t6Q-5" value="DB查询" style="rounded=1;whiteSpace=wrap;html=1;fillColor=none;" vertex="1" parent="1">
          <mxGeometry x="430" y="315" width="140" height="60" as="geometry" />
        </mxCell>
        <mxCell id="10Q4ESYdWesnceg-2t6Q-17" style="edgeStyle=orthogonalEdgeStyle;rounded=0;orthogonalLoop=1;jettySize=auto;html=1;exitX=0.5;exitY=1;exitDx=0;exitDy=0;entryX=0;entryY=0.5;entryDx=0;entryDy=0;" edge="1" parent="1" source="10Q4ESYdWesnceg-2t6Q-12" target="10Q4ESYdWesnceg-2t6Q-14">
          <mxGeometry relative="1" as="geometry" />
        </mxCell>
        <mxCell id="10Q4ESYdWesnceg-2t6Q-29" style="edgeStyle=orthogonalEdgeStyle;rounded=0;orthogonalLoop=1;jettySize=auto;html=1;exitX=1;exitY=0.5;exitDx=0;exitDy=0;entryX=0;entryY=0.5;entryDx=0;entryDy=0;" edge="1" parent="1" source="10Q4ESYdWesnceg-2t6Q-12" target="10Q4ESYdWesnceg-2t6Q-16">
          <mxGeometry relative="1" as="geometry" />
        </mxCell>
        <mxCell id="10Q4ESYdWesnceg-2t6Q-12" value="是否为DEFAULT_NULL" style="rhombus;whiteSpace=wrap;html=1;fillColor=none;" vertex="1" parent="1">
          <mxGeometry x="215" y="430" width="150" height="70" as="geometry" />
        </mxCell>
        <mxCell id="10Q4ESYdWesnceg-2t6Q-18" style="edgeStyle=orthogonalEdgeStyle;rounded=0;orthogonalLoop=1;jettySize=auto;html=1;exitX=0.5;exitY=1;exitDx=0;exitDy=0;entryX=0.5;entryY=0;entryDx=0;entryDy=0;" edge="1" parent="1" source="10Q4ESYdWesnceg-2t6Q-14" target="10Q4ESYdWesnceg-2t6Q-4">
          <mxGeometry relative="1" as="geometry" />
        </mxCell>
        <mxCell id="10Q4ESYdWesnceg-2t6Q-14" value="返回值" style="rounded=1;whiteSpace=wrap;html=1;fillColor=none;" vertex="1" parent="1">
          <mxGeometry x="430" y="555" width="140" height="60" as="geometry" />
        </mxCell>
        <mxCell id="10Q4ESYdWesnceg-2t6Q-21" style="edgeStyle=orthogonalEdgeStyle;rounded=0;orthogonalLoop=1;jettySize=auto;html=1;exitX=0.5;exitY=1;exitDx=0;exitDy=0;entryX=1;entryY=0.5;entryDx=0;entryDy=0;" edge="1" parent="1" source="10Q4ESYdWesnceg-2t6Q-15" target="10Q4ESYdWesnceg-2t6Q-14">
          <mxGeometry relative="1" as="geometry" />
        </mxCell>
        <mxCell id="10Q4ESYdWesnceg-2t6Q-15" value="重设Tair expireTime" style="rounded=1;whiteSpace=wrap;html=1;fillColor=none;" vertex="1" parent="1">
          <mxGeometry x="640" y="435" width="140" height="60" as="geometry" />
        </mxCell>
        <mxCell id="10Q4ESYdWesnceg-2t6Q-19" style="edgeStyle=orthogonalEdgeStyle;rounded=0;orthogonalLoop=1;jettySize=auto;html=1;exitX=0.5;exitY=1;exitDx=0;exitDy=0;entryX=0.5;entryY=0;entryDx=0;entryDy=0;" edge="1" parent="1" source="10Q4ESYdWesnceg-2t6Q-16" target="10Q4ESYdWesnceg-2t6Q-14">
          <mxGeometry relative="1" as="geometry" />
        </mxCell>
        <mxCell id="10Q4ESYdWesnceg-2t6Q-20" style="edgeStyle=orthogonalEdgeStyle;rounded=0;orthogonalLoop=1;jettySize=auto;html=1;exitX=1;exitY=0.5;exitDx=0;exitDy=0;entryX=0;entryY=0.5;entryDx=0;entryDy=0;" edge="1" parent="1" source="10Q4ESYdWesnceg-2t6Q-16" target="10Q4ESYdWesnceg-2t6Q-15">
          <mxGeometry relative="1" as="geometry" />
        </mxCell>
        <mxCell id="10Q4ESYdWesnceg-2t6Q-16" value="是否设置nullResetExpiredTime" style="rhombus;whiteSpace=wrap;html=1;fillColor=none;" vertex="1" parent="1">
          <mxGeometry x="425" y="430" width="150" height="70" as="geometry" />
        </mxCell>
        <mxCell id="10Q4ESYdWesnceg-2t6Q-22" value="是" style="text;html=1;align=center;verticalAlign=middle;whiteSpace=wrap;rounded=0;" vertex="1" parent="1">
          <mxGeometry x="250" y="390" width="40" height="20" as="geometry" />
        </mxCell>
        <mxCell id="10Q4ESYdWesnceg-2t6Q-26" value="否" style="text;html=1;align=center;verticalAlign=middle;whiteSpace=wrap;rounded=0;" vertex="1" parent="1">
          <mxGeometry x="360" y="315" width="40" height="20" as="geometry" />
        </mxCell>
        <mxCell id="10Q4ESYdWesnceg-2t6Q-27" value="是" style="text;html=1;align=center;verticalAlign=middle;whiteSpace=wrap;rounded=0;" vertex="1" parent="1">
          <mxGeometry x="570" y="435" width="40" height="20" as="geometry" />
        </mxCell>
        <mxCell id="10Q4ESYdWesnceg-2t6Q-28" value="否" style="text;html=1;align=center;verticalAlign=middle;whiteSpace=wrap;rounded=0;" vertex="1" parent="1">
          <mxGeometry x="500" y="520" width="40" height="20" as="geometry" />
        </mxCell>
        <mxCell id="10Q4ESYdWesnceg-2t6Q-30" value="Tair设置值&lt;div&gt;（为空则设置&lt;span style=&quot;background-color: initial;&quot;&gt;&lt;font style=&quot;font-size: 11px;&quot;&gt;DEFAULT_NULL&lt;/font&gt;&lt;/span&gt;&lt;span style=&quot;background-color: initial;&quot;&gt;）&lt;/span&gt;&lt;/div&gt;" style="rounded=1;whiteSpace=wrap;html=1;fillColor=none;align=center;" vertex="1" parent="1">
          <mxGeometry x="635" y="317.5" width="150" height="55" as="geometry" />
        </mxCell>
      </root>
    </mxGraphModel>
  </diagram>
</mxfile>
